<svg xmlns="http://www.w3.org/2000/svg" xmlns:xlink="http://www.w3.org/1999/xlink" version="1.1" x="0px" y="0px" viewBox="0 0 24 30" enable-background="new 0 0 24 24" xml:space="preserve"><g><path d="M9.033,23.541c-4.952,0-8.981-4.029-8.981-8.981c0-3.68,2.258-6.988,5.654-8.343V3.992c0-0.276,0.224-0.5,0.5-0.5h5.789   c0.276,0,0.5,0.224,0.5,0.5v2.279c3.315,1.387,5.52,4.674,5.52,8.288C18.014,19.512,13.985,23.541,9.033,23.541z M6.706,4.492v2.07   c0,0.212-0.134,0.4-0.333,0.472C3.19,8.159,1.051,11.184,1.051,14.56c0,4.401,3.58,7.981,7.981,7.981s7.981-3.58,7.981-7.981   c0-3.316-2.087-6.322-5.194-7.479c-0.195-0.073-0.325-0.26-0.325-0.469V4.492H6.706z"/><path d="M9.199,21.85c-0.957,0-2.021-0.212-3.194-0.728c-0.253-0.111-0.368-0.406-0.257-0.659c0.113-0.253,0.407-0.365,0.659-0.257   c5.613,2.472,8.256-2.956,8.366-3.188c0.119-0.251,0.417-0.354,0.666-0.238c0.249,0.118,0.356,0.416,0.238,0.666   C15.652,17.499,13.535,21.85,9.199,21.85z"/><path d="M14.121,4.492c-0.276,0-0.5-0.224-0.5-0.5c0-1.283-0.934-2.327-2.08-2.327S9.46,2.709,9.46,3.992   c0,0.276-0.224,0.5-0.5,0.5s-0.5-0.224-0.5-0.5c0-1.835,1.382-3.327,3.08-3.327s3.08,1.492,3.08,3.327   C14.621,4.269,14.397,4.492,14.121,4.492z"/><path d="M16.701,7.318c-1.785,0-3.08-1.398-3.08-3.326c0-0.276,0.224-0.5,0.5-0.5s0.5,0.224,0.5,0.5   c0,1.369,0.855,2.326,2.08,2.326c0.724,0,1.384-0.41,1.768-1.098c0.135-0.242,0.439-0.328,0.68-0.193   c0.241,0.135,0.328,0.438,0.193,0.68C18.779,6.716,17.792,7.318,16.701,7.318z"/><path d="M20.038,2.74c-0.276,0-0.5-0.224-0.5-0.5V0.959c0-0.276,0.224-0.5,0.5-0.5s0.5,0.224,0.5,0.5V2.24   C20.538,2.517,20.314,2.74,20.038,2.74z"/><path d="M20.038,8.282c-0.276,0-0.5-0.224-0.5-0.5V6.501c0-0.276,0.224-0.5,0.5-0.5s0.5,0.224,0.5,0.5v1.281   C20.538,8.059,20.314,8.282,20.038,8.282z"/><path d="M21.543,3.364c-0.128,0-0.256-0.049-0.354-0.146c-0.195-0.195-0.195-0.512,0-0.707l0.906-0.906   c0.195-0.195,0.512-0.195,0.707,0s0.195,0.512,0,0.707l-0.906,0.906C21.799,3.315,21.671,3.364,21.543,3.364z"/><path d="M23.449,4.87h-1.281c-0.276,0-0.5-0.224-0.5-0.5s0.224-0.5,0.5-0.5h1.281c0.276,0,0.5,0.224,0.5,0.5   S23.725,4.87,23.449,4.87z"/><path d="M17.793,4.87h-1.28c-0.276,0-0.5-0.224-0.5-0.5s0.224-0.5,0.5-0.5h1.28c0.276,0,0.5,0.224,0.5,0.5S18.07,4.87,17.793,4.87z   "/><path d="M22.45,7.283c-0.128,0-0.256-0.049-0.354-0.146L21.19,6.23c-0.195-0.195-0.195-0.512,0-0.707s0.512-0.195,0.707,0   l0.906,0.906c0.195,0.195,0.195,0.512,0,0.707C22.706,7.234,22.578,7.283,22.45,7.283z"/><path d="M18.531,3.364c-0.128,0-0.256-0.049-0.354-0.146l-0.905-0.906c-0.195-0.195-0.195-0.512,0-0.707s0.512-0.195,0.707,0   l0.905,0.906c0.195,0.195,0.195,0.512,0,0.707C18.787,3.315,18.659,3.364,18.531,3.364z"/></g><text x="0" y="39" fill="#000000" font-size="5px" font-weight="bold" font-family="'Helvetica Neue', Helvetica, Arial-Unicode, Arial, Sans-serif">Created by Atif Arshad</text><text x="0" y="44" fill="#000000" font-size="5px" font-weight="bold" font-family="'Helvetica Neue', Helvetica, Arial-Unicode, Arial, Sans-serif">from the Noun Project</text></svg>