<svg xmlns="http://www.w3.org/2000/svg" version="1.0" viewBox="0 0 818 1022.5" preserveAspectRatio="xMidYMid meet" x="0px" y="0px"><metadata>
Created by potrace 1.16, written by Peter Selinger 2001-2019
</metadata><g transform="translate(0.000000,818.000000) scale(0.100000,-0.100000)" fill="#000000" stroke="none"><path d="M5695 6923 c-33 -7 -127 -45 -175 -71 -61 -33 -167 -91 -210 -115 -19 -11 -55 -31 -80 -45 -25 -14 -65 -36 -90 -50 -25 -14 -110 -58 -190 -99 -125 -64 -150 -73 -180 -68 -19 4 -39 10 -45 15 -5 4 -23 10 -40 14 -16 4 -48 11 -70 17 -158 38 -447 56 -668 41 -89 -6 -178 -13 -197 -17 -131 -22 -233 -51 -306 -87 l-42 -20 -63 22 c-103 35 -188 74 -364 170 -292 159 -498 250 -570 250 -43 0 -117 -49 -154 -104 -75 -109 -142 -287 -183 -485 -18 -88 -22 -140 -22 -301 0 -252 19 -348 105 -527 40 -83 46 -108 30 -117 -26 -16 -125 -249 -161 -376 -7 -25 -16 -58 -21 -73 -14 -45 4 -67 53 -67 l42 0 -72 -50 c-130 -89 -218 -158 -265 -209 -77 -82 -60 -113 66 -121 l80 -5 -27 -32 c-39 -46 -79 -139 -71 -164 6 -18 13 -21 46 -16 21 3 39 3 39 1 0 -1 -12 -25 -28 -51 -70 -122 -91 -206 -56 -220 10 -4 77 25 169 71 84 42 157 76 162 76 5 0 -3 -26 -18 -57 -39 -84 -53 -159 -38 -217 15 -62 39 -74 82 -44 17 12 34 25 37 28 3 3 14 12 24 20 18 14 19 13 12 -22 -9 -48 8 -58 30 -16 l16 32 37 -73 c21 -44 59 -98 94 -134 l57 -60 -39 -51 c-136 -177 -250 -429 -296 -651 -35 -172 -39 -425 -9 -572 l7 -33 -59 0 c-126 1 -309 42 -422 96 -268 129 -416 368 -440 709 -6 101 -9 110 -28 113 -23 3 -38 -15 -86 -107 -129 -246 -145 -605 -39 -870 68 -170 196 -328 348 -428 69 -46 102 -62 193 -93 19 -7 44 -16 55 -20 23 -9 85 -24 165 -39 131 -24 308 -21 455 8 129 25 129 25 144 -2 11 -20 10 -32 -4 -78 l-17 -54 -52 3 c-28 2 -60 7 -71 12 -11 5 -33 11 -50 13 -30 5 -56 13 -149 48 -58 23 -116 25 -116 6 0 -35 71 -80 168 -106 122 -32 145 -37 241 -48 50 -5 59 -11 115 -67 78 -79 157 -108 336 -126 47 -4 119 -15 160 -25 68 -16 96 -16 291 -6 119 6 257 18 305 25 131 20 968 21 1117 1 152 -21 464 -29 562 -15 44 6 118 15 165 20 178 18 275 51 342 114 60 56 88 141 68 209 l-12 45 42 43 c93 95 194 275 249 439 28 82 35 110 63 230 19 86 15 416 -7 515 -9 44 -21 96 -25 115 -37 175 -183 463 -317 626 l-33 42 42 47 c53 59 65 77 93 132 19 36 23 40 28 23 9 -34 26 -22 29 20 l3 40 50 -40 c28 -22 58 -40 68 -40 27 0 57 58 57 110 0 50 -20 133 -43 179 -11 22 -12 31 -4 31 7 0 72 -30 146 -67 104 -52 137 -64 150 -56 36 24 -2 143 -75 239 l-36 47 33 -8 c19 -4 50 -8 69 -9 33 -1 35 1 38 32 4 44 -21 95 -76 154 l-45 48 65 0 c106 0 156 27 138 75 -13 33 -148 153 -250 221 -59 40 -87 64 -74 64 42 0 57 48 33 107 -32 77 -45 105 -87 193 -25 52 -66 125 -90 162 l-45 68 18 27 c193 293 208 754 39 1178 -106 267 -220 371 -369 338z m123 -73 c17 -11 32 -23 32 -28 0 -4 -28 -14 -62 -20 -176 -36 -208 -54 -86 -47 71 4 110 1 140 -10 33 -11 44 -11 50 -2 5 7 8 1 8 -16 0 -16 4 -26 10 -22 6 3 10 -1 10 -9 0 -9 4 -16 9 -16 8 0 68 -115 94 -180 5 -14 13 -33 18 -42 5 -10 9 -27 9 -37 0 -11 5 -23 10 -26 6 -3 10 -21 10 -39 0 -17 4 -36 9 -41 16 -17 23 -94 27 -304 4 -136 2 -207 -5 -214 -11 -11 -15 61 -12 258 0 50 -3 97 -9 105 -7 10 -10 -39 -10 -152 0 -102 -4 -169 -10 -173 -6 -4 -23 -32 -39 -63 -29 -56 -29 -57 -36 -29 -4 16 -5 61 -2 100 6 76 -5 265 -22 357 -22 126 -71 289 -103 348 -10 18 -18 37 -18 43 0 25 -64 100 -97 114 -30 13 -41 13 -75 1 -81 -27 -222 -153 -378 -336 -60 -71 -131 -146 -109 -116 8 11 16 57 20 110 4 71 12 104 32 144 37 73 74 117 113 133 19 7 34 16 34 21 0 11 -18 10 -25 -2 -3 -5 -17 -10 -31 -10 -13 0 -24 -4 -24 -10 0 -5 -8 -10 -17 -10 -15 0 -13 4 7 20 14 10 36 25 50 32 14 7 52 29 85 48 133 79 270 135 335 139 14 0 40 -8 58 -19z m-3273 -74 c39 -16 99 -46 135 -64 219 -115 236 -125 225 -142 -4 -7 -18 -10 -31 -7 -13 2 -24 1 -24 -2 0 -8 59 -46 97 -62 19 -8 37 -25 41 -39 9 -24 9 -25 16 -3 11 35 83 36 190 1 49 -15 97 -28 108 -28 30 0 60 -20 54 -36 -4 -11 1 -13 22 -8 15 4 31 11 37 15 5 5 19 9 31 9 13 0 25 4 28 9 3 4 20 11 38 15 18 3 53 11 78 17 213 51 585 69 820 41 218 -27 286 -40 420 -81 52 -16 58 -13 28 13 l-27 24 32 12 c18 6 40 16 49 21 10 5 22 9 28 9 6 0 29 9 53 19 84 39 85 39 92 -23 4 -30 4 -78 0 -108 -8 -64 -42 -166 -62 -190 -17 -19 -10 -38 14 -38 9 0 30 -4 47 -9 17 -6 63 -17 101 -25 121 -26 285 -86 285 -104 0 -4 -59 -4 -131 1 -73 4 -134 5 -137 2 -20 -20 180 -92 341 -122 15 -3 30 -10 33 -15 4 -6 -23 -7 -72 -4 -44 4 -146 9 -229 12 l-150 5 35 -24 c19 -13 51 -28 70 -33 20 -6 39 -19 45 -32 14 -31 56 -44 170 -52 55 -4 127 -14 160 -24 53 -15 69 -26 140 -99 171 -174 257 -305 373 -567 61 -139 67 -166 30 -154 -13 4 -36 11 -53 15 -16 4 -75 23 -130 43 -58 20 -103 32 -108 27 -12 -12 -2 -27 31 -44 181 -94 385 -232 495 -334 48 -45 51 -55 19 -60 -48 -7 -397 -3 -425 6 -117 36 -411 48 -522 22 -76 -19 -47 -24 72 -13 100 8 173 5 173 -9 0 -5 -14 -9 -32 -9 -40 0 -115 -23 -178 -55 -14 -7 -50 -20 -80 -29 -46 -14 -66 -28 -128 -92 -40 -42 -71 -81 -70 -86 2 -6 46 -25 98 -42 120 -40 216 -87 277 -133 57 -43 146 -136 164 -172 8 -14 20 -36 28 -49 13 -21 14 -21 27 -5 12 16 15 16 24 3 5 -8 10 -23 10 -32 0 -28 20 -31 46 -7 l24 23 -11 -35 c-29 -85 -147 -202 -282 -278 -21 -12 -54 -31 -74 -43 -58 -33 -167 -85 -230 -109 -46 -18 -78 -32 -95 -40 -10 -5 -25 -9 -33 -9 -8 0 -23 -4 -33 -9 -9 -5 -37 -15 -62 -21 -25 -7 -54 -16 -65 -20 -11 -5 -33 -11 -50 -15 -16 -3 -48 -10 -70 -16 -22 -6 -60 -14 -85 -19 -25 -5 -72 -14 -105 -20 -130 -25 -449 -54 -595 -54 -145 0 -500 30 -615 53 -27 5 -75 14 -105 20 -30 5 -73 14 -95 20 -22 6 -53 13 -70 16 -16 4 -39 10 -50 15 -11 4 -40 13 -65 20 -25 6 -53 16 -62 21 -10 5 -25 9 -33 9 -8 0 -23 4 -33 9 -9 5 -60 26 -112 46 -231 89 -412 207 -491 322 -32 46 -35 69 -14 97 15 19 16 19 43 -7 27 -26 29 -26 44 -10 8 10 28 40 43 67 54 99 261 275 403 344 39 19 72 39 72 44 0 11 -83 92 -117 115 -12 8 -19 21 -17 28 7 16 -89 31 -138 21 -18 -4 -48 -9 -66 -13 -18 -3 -35 -9 -38 -14 -3 -5 -14 -9 -25 -9 -10 0 -27 -4 -37 -9 -35 -19 -90 -41 -101 -41 -8 0 -11 24 -9 78 l3 77 70 3 c38 2 75 8 82 14 9 7 52 9 126 5 110 -6 111 -6 57 8 -65 17 -126 19 -320 11 -273 -11 -266 -8 -424 -136 -86 -71 -136 -103 -144 -95 -4 4 50 75 85 112 12 12 41 33 64 47 74 41 65 50 -47 42 -55 -3 -115 -9 -134 -12 l-35 -6 75 77 c85 88 185 172 280 235 36 24 70 48 75 52 6 5 38 29 73 53 34 25 62 50 62 55 0 16 -35 11 -82 -11 -46 -23 -65 -31 -113 -47 -79 -26 -116 -35 -121 -30 -5 5 22 101 46 163 5 11 13 36 20 55 62 179 161 338 305 488 83 88 124 111 208 116 104 7 188 29 307 83 64 30 192 118 234 162 53 55 43 58 -221 66 -257 8 -255 7 -78 45 67 14 188 47 223 61 13 5 36 9 53 9 16 0 46 7 67 16 l37 16 -39 14 c-39 14 -151 116 -174 159 -6 11 -14 16 -19 11 -4 -5 -3 -10 3 -13 7 -2 9 -31 7 -78 l-4 -74 38 -4 38 -4 -38 -1 c-34 -2 -43 4 -95 60 -317 345 -413 428 -494 428 -24 0 -49 -5 -56 -12 -17 -17 -20 -8 -13 42 6 45 6 45 45 43 l38 -3 -23 18 c-13 10 -41 26 -63 36 -29 14 -35 20 -25 27 20 13 74 1 154 -35z m3182 -314 c82 -92 110 -147 162 -327 16 -56 41 -221 41 -272 0 -24 -5 -75 -11 -115 -15 -100 -21 -126 -26 -108 -2 9 -23 21 -46 27 -23 6 -53 14 -67 18 -19 5 -22 4 -10 -4 8 -6 11 -11 5 -11 -15 1 -45 26 -45 39 0 6 -7 11 -15 11 -8 0 -15 4 -15 8 0 4 -25 21 -56 36 -31 16 -52 32 -47 36 4 5 31 11 58 14 124 13 135 17 135 40 0 19 -11 26 -72 45 -40 13 -81 27 -90 32 -10 5 -26 9 -36 9 -10 0 -27 7 -38 15 -19 14 -18 14 4 15 28 0 28 21 0 46 -25 21 -184 104 -202 104 -6 0 -20 7 -31 15 -18 15 -17 17 32 65 36 35 50 55 46 69 -2 10 0 21 5 25 5 3 7 25 5 49 -5 42 -3 45 43 83 69 57 119 75 196 70 38 -2 52 -9 75 -34z m-3347 -109 c0 -21 -3 -24 -9 -14 -5 8 -7 20 -4 28 8 21 13 15 13 -14z m283 -49 c40 -42 98 -103 129 -134 58 -59 62 -70 22 -70 -13 0 -26 -4 -29 -10 -3 -5 -15 -10 -26 -10 -19 0 -28 -4 -76 -28 -13 -7 -28 -12 -35 -12 -7 0 -24 -9 -38 -20 l-25 -19 37 -15 c21 -9 50 -16 65 -16 28 0 28 -1 -7 -17 -19 -9 -60 -28 -90 -44 -163 -81 -173 -97 -85 -124 55 -18 55 -18 33 -34 -13 -8 -36 -29 -53 -44 -16 -16 -55 -51 -86 -78 -55 -47 -57 -48 -64 -26 -21 58 -28 126 -32 294 -3 148 -1 188 12 219 8 20 15 51 16 68 1 29 1 29 8 6 7 -24 8 -23 29 20 24 51 107 138 149 156 56 25 71 18 146 -62z m-306 -52 c-3 -9 -5 1 -4 23 0 22 2 30 4 17 2 -12 2 -30 0 -40z m643 -281 c0 -6 -5 -13 -11 -17 -8 -5 -7 -9 1 -14 8 -5 -9 -14 -46 -25 -32 -9 -73 -21 -90 -26 -17 -5 -42 -9 -56 -9 -14 0 -38 -4 -54 -9 -39 -13 -119 -21 -108 -12 5 4 29 15 54 25 25 10 56 23 70 29 57 23 77 29 180 56 47 12 60 13 60 2z m3090 -236 c0 -13 -4 -27 -10 -30 -6 -4 -10 8 -10 30 0 22 4 34 10 30 6 -3 10 -17 10 -30z m-113 -57 c-3 -7 -5 -2 -5 12 0 14 2 19 5 13 2 -7 2 -19 0 -25z m-3622 -1148 c-3 -5 -8 -10 -11 -10 -2 0 -4 5 -4 10 0 6 5 10 11 10 5 0 7 -4 4 -10z m3835 -30 c3 -3 15 -13 28 -22 41 -28 152 -139 152 -152 0 -3 -17 4 -37 14 -21 10 -51 24 -68 30 -16 7 -38 16 -47 21 -10 5 -27 9 -37 9 -11 0 -22 4 -25 9 -3 5 -23 11 -43 14 -21 3 -53 9 -71 13 -57 11 -37 -25 32 -61 69 -35 166 -119 166 -144 0 -9 -11 -24 -25 -33 -22 -17 -25 -17 -67 4 -24 11 -52 24 -63 28 -11 4 -40 17 -63 29 -24 11 -50 21 -58 21 -14 0 -25 4 -71 28 -29 15 -54 15 -76 -2 -25 -19 -13 -40 41 -75 93 -59 184 -163 163 -184 -20 -20 -83 -13 -139 16 -30 15 -61 27 -70 27 -12 0 -14 2 -4 8 9 6 -6 29 -50 83 -34 41 -76 86 -92 101 -17 15 -28 30 -24 33 3 3 31 7 61 8 42 2 62 8 80 25 27 25 38 27 70 10 41 -21 53 -25 85 -33 38 -8 42 6 7 25 -14 7 -25 17 -25 22 0 4 -9 8 -20 8 -11 0 -20 4 -20 9 0 5 -9 11 -20 14 -23 6 -25 16 -7 40 24 33 316 82 337 57z m-528 -27 c-7 -3 -16 -2 -19 1 -4 3 2 6 13 5 11 0 14 -3 6 -6z m100 -20 c-7 -3 -16 -2 -19 1 -4 3 2 6 13 5 11 0 14 -3 6 -6z m60 -25 c-9 -9 -15 -9 -24 0 -9 9 -7 12 12 12 19 0 21 -3 12 -12z m-3487 -48 c3 -5 17 -10 31 -10 15 0 24 -6 24 -15 0 -8 5 -15 10 -15 17 0 11 -17 -7 -23 -10 -3 -31 -13 -48 -23 -48 -27 -64 -34 -80 -34 -8 0 -23 -4 -33 -9 -22 -12 -120 -48 -152 -56 -19 -5 -21 -4 -10 4 13 9 12 12 -4 24 -19 14 -19 15 2 49 26 42 86 98 106 98 8 0 18 5 21 10 3 6 35 10 70 10 35 0 67 -4 70 -10z m410 0 c3 -5 -3 -10 -14 -10 -17 0 -21 -6 -21 -35 0 -27 4 -35 18 -35 11 0 6 -7 -16 -20 -18 -11 -39 -20 -47 -20 -8 0 -15 -4 -15 -10 0 -5 -5 -10 -11 -10 -6 0 -30 -13 -53 -30 l-43 -29 -20 22 c-11 12 -30 39 -43 60 -22 37 -22 39 -4 52 11 7 37 19 59 25 22 7 50 16 63 21 13 5 35 9 50 9 15 0 34 5 42 10 20 13 47 13 55 0z m3045 -6 c0 -2 -12 -4 -27 -4 -21 0 -24 3 -14 9 13 8 41 5 41 -5z m-3380 -112 c0 -5 -9 -27 -20 -50 -11 -22 -20 -48 -20 -57 0 -8 -4 -15 -10 -15 -5 0 -10 -9 -10 -20 0 -15 -7 -20 -24 -20 -14 0 -28 -4 -31 -10 -8 -13 -35 -13 -35 0 0 11 19 36 78 100 23 26 42 54 42 64 0 9 7 16 15 16 8 0 15 -4 15 -8z m3846 -69 c-3 -4 -6 2 -5 13 0 11 3 14 6 6 3 -7 2 -16 -1 -19z m-3656 -39 c0 -2 -4 -4 -10 -4 -5 0 -10 5 -10 11 0 5 5 7 10 4 6 -3 10 -8 10 -11z m3187 -646 c39 -43 124 -179 173 -276 94 -188 145 -378 153 -572 2 -69 3 -113 0 -97 -2 15 -8 27 -13 27 -5 0 -11 33 -13 73 -5 73 -17 144 -35 207 -6 19 -14 46 -17 60 -4 14 -10 34 -15 45 -4 11 -18 47 -31 80 -21 56 -33 79 -82 165 -32 57 -50 85 -83 131 -51 71 -74 118 -74 149 0 36 9 38 37 8z m26 -168 c16 -19 61 -160 74 -233 3 -15 9 -30 14 -33 5 -3 9 -12 9 -19 0 -8 11 -38 24 -67 14 -29 28 -67 31 -83 4 -17 18 -46 31 -65 28 -42 62 -145 68 -205 2 -24 7 -49 12 -56 14 -24 14 -67 -1 -96 -8 -15 -18 -49 -21 -76 -4 -26 -11 -50 -15 -53 -5 -3 -9 -14 -9 -24 0 -10 -18 -38 -40 -61 -22 -24 -40 -46 -40 -49 0 -3 -15 -22 -32 -42 -42 -47 -118 -82 -160 -73 -41 10 -104 69 -133 126 -26 50 -46 179 -28 179 19 0 45 76 38 111 -8 43 -33 126 -47 159 -6 14 -14 34 -19 45 -16 39 -29 140 -29 227 0 48 -3 88 -8 88 -4 0 -13 14 -20 30 -9 19 -21 30 -34 30 -11 0 -18 3 -16 8 2 4 67 67 145 140 79 73 145 138 149 143 3 6 13 2 22 -10 10 -10 25 -29 35 -41z m-3022 -74 c-6 -7 -8 -27 -5 -45 5 -22 2 -37 -9 -49 -15 -17 -15 -19 3 -35 11 -9 39 -29 62 -44 24 -15 46 -31 49 -36 9 -12 69 4 69 19 0 18 2 18 45 -7 43 -26 53 -20 38 24 -19 56 -24 106 -13 127 13 25 26 25 78 0 22 -11 47 -20 55 -20 7 0 17 -4 22 -9 16 -15 253 -70 392 -91 352 -54 887 -47 1185 15 152 32 387 100 405 118 3 4 21 7 40 7 30 0 37 -7 90 -88 69 -104 79 -123 92 -182 5 -25 14 -63 20 -85 18 -68 41 -245 41 -317 0 -79 -15 -187 -37 -268 -8 -30 -18 -68 -23 -85 -25 -96 -57 -174 -121 -295 -13 -25 -24 -46 -25 -47 0 -2 -27 4 -60 13 -53 14 -110 14 -209 2 -25 -3 -36 -11 -98 -72 -34 -33 -46 -51 -39 -58 8 -8 20 -3 42 15 92 78 259 92 382 33 46 -22 118 -98 149 -157 20 -38 24 -58 23 -143 0 -67 -4 -101 -12 -104 -7 -2 -12 -10 -12 -18 0 -8 -20 -35 -45 -59 l-44 -45 -140 0 -139 0 27 29 c30 32 71 132 71 174 0 34 -17 44 -25 15 -20 -72 -79 -147 -140 -178 -41 -21 -49 -22 -88 -10 -86 26 -168 73 -215 125 -69 75 -92 130 -122 291 -13 67 -8 320 9 419 27 161 29 169 43 135 9 -23 10 -24 20 -6 6 12 7 21 1 25 -15 10 -23 55 -13 71 7 11 10 5 10 -22 0 -52 18 -48 24 5 15 125 15 195 1 207 -13 10 -15 8 -15 -14 0 -14 -5 -26 -10 -26 -6 0 -8 11 -4 26 5 19 4 25 -5 20 -6 -4 -11 -12 -11 -17 0 -5 -12 -27 -26 -49 -18 -26 -24 -45 -19 -57 7 -16 9 -15 14 7 5 16 9 21 14 13 4 -7 2 -22 -4 -35 -25 -48 -29 -58 -29 -77 0 -11 -4 -22 -9 -25 -5 -3 -11 -20 -14 -38 -3 -18 -11 -53 -17 -78 -7 -25 -14 -69 -17 -99 -4 -46 -10 -59 -46 -95 -38 -37 -122 -85 -204 -116 -18 -7 -79 -13 -135 -14 -89 -1 -107 2 -133 19 -16 12 -51 31 -76 44 -25 12 -65 39 -88 59 -38 33 -45 45 -52 92 -5 30 -14 78 -20 105 -5 28 -13 65 -16 83 -3 18 -9 35 -14 38 -5 3 -9 14 -9 25 0 10 -4 27 -9 37 -5 9 -14 31 -21 47 -7 17 -16 38 -21 47 -5 10 -9 25 -9 33 0 8 -2 15 -4 15 -2 0 -11 2 -19 5 -10 5 -13 -2 -10 -27 3 -18 8 -42 13 -53 8 -19 41 -152 55 -220 41 -207 40 -473 -3 -635 -29 -110 -107 -208 -202 -252 -122 -56 -158 -61 -200 -28 -14 11 -29 20 -33 20 -12 0 -37 27 -37 39 0 6 -3 11 -7 11 -9 0 -33 48 -33 64 0 6 -9 25 -21 41 l-20 30 7 -60 c3 -33 10 -64 14 -70 4 -5 10 -22 14 -37 3 -15 17 -38 31 -52 l24 -25 -27 -5 c-80 -16 -106 -17 -177 -6 -122 18 -163 57 -195 182 -33 126 54 287 192 359 37 20 58 23 160 23 80 1 121 -3 130 -12 6 -6 18 -12 26 -12 8 0 27 -9 42 -20 37 -26 47 -10 15 22 -22 23 -72 50 -138 77 -33 13 -111 15 -135 2 -9 -4 -35 -11 -57 -14 l-40 -6 -32 67 c-68 143 -89 200 -123 332 -27 106 -34 375 -13 485 20 99 24 119 32 140 17 43 41 121 41 133 0 24 -16 12 -30 -23 -8 -19 -17 -35 -22 -35 -4 0 -8 -11 -8 -25 0 -14 -4 -25 -10 -25 -5 0 -10 -8 -10 -17 0 -10 -7 -27 -15 -37 -8 -11 -15 -30 -15 -42 0 -13 -4 -25 -9 -28 -10 -6 -27 -128 -45 -317 -14 -149 -29 -188 -102 -268 -53 -59 -112 -85 -179 -78 -48 5 -53 4 -41 -9 8 -8 24 -14 36 -14 22 0 70 -41 70 -60 0 -5 10 -10 23 -10 18 0 19 -2 7 -10 -22 -14 -136 -12 -163 3 -49 27 -90 75 -52 61 10 -4 15 0 15 14 0 12 9 27 20 35 19 13 19 15 4 28 -84 69 -133 256 -119 454 4 59 11 102 15 95 5 -9 9 -9 14 -1 4 6 4 16 1 21 -3 6 -1 10 4 10 6 0 11 5 11 11 0 24 42 99 55 99 8 0 15 7 15 15 0 8 5 15 10 15 6 0 10 13 10 30 0 22 4 28 15 24 17 -7 18 5 5 60 -13 57 26 169 72 212 40 36 56 36 103 4 24 -17 49 -30 56 -30 6 0 30 15 53 33 62 50 115 77 87 43z m289 -12 c0 -2 -4 -4 -10 -4 -5 0 -10 5 -10 11 0 5 5 7 10 4 6 -3 10 -8 10 -11z m63 -21 c-7 -2 -19 -2 -25 0 -7 3 -2 5 12 5 14 0 19 -2 13 -5z m60 -20 c-7 -2 -19 -2 -25 0 -7 3 -2 5 12 5 14 0 19 -2 13 -5z m-2024 -358 c5 -11 14 -40 21 -65 15 -52 90 -213 102 -218 4 -2 8 -11 8 -20 0 -41 -90 93 -117 173 -27 81 -46 183 -36 198 5 8 9 1 11 -18 1 -16 7 -39 11 -50z m151 -336 c0 -5 -4 -7 -10 -4 -13 8 -13 15 0 15 6 0 10 -5 10 -11z m3275 -30 c-9 -14 -15 -11 -15 7 0 8 5 12 10 9 6 -4 8 -11 5 -16z m35 -71 c0 -16 -3 -19 -11 -11 -6 6 -8 16 -5 22 11 17 16 13 16 -11z m-3127 -56 c40 -26 86 -55 102 -62 40 -20 49 -37 46 -85 -5 -80 -50 -197 -117 -302 -36 -56 -85 -96 -92 -75 -2 6 -12 12 -23 12 -10 0 -19 5 -19 10 0 6 -7 10 -17 10 -9 0 -14 3 -10 6 3 3 -21 28 -53 54 -61 52 -100 99 -100 122 0 8 14 27 31 44 39 37 109 153 109 181 0 12 5 25 11 29 6 3 9 15 6 25 -3 11 -1 17 4 14 4 -3 11 7 15 22 13 56 15 56 107 -5z m416 -163 c30 -5 77 -9 105 -9 59 0 116 -19 116 -38 0 -7 -3 -11 -7 -9 -5 3 -8 -34 -9 -81 -1 -142 -30 -258 -86 -339 l-29 -43 -89 0 c-49 0 -100 4 -114 10 -27 10 -27 17 6 90 46 104 63 206 36 214 -7 2 -33 9 -58 16 -25 7 -66 22 -93 34 -51 23 -57 43 -19 62 12 6 30 18 40 27 10 10 23 17 28 17 5 0 17 13 27 29 17 29 17 30 -5 34 -13 2 4 2 37 0 33 -3 84 -9 114 -14z m241 -100 c0 -5 -4 -9 -10 -9 -5 0 -10 7 -10 16 0 8 5 12 10 9 6 -3 10 -10 10 -16z m6 -76 c-3 -4 -6 2 -5 13 0 11 3 14 6 6 3 -7 2 -16 -1 -19z m2122 -173 c18 -11 41 -33 50 -49 9 -16 31 -35 49 -42 32 -12 43 -32 24 -43 -5 -3 -11 -16 -14 -28 -3 -13 -11 -41 -17 -63 -6 -22 -14 -67 -18 -100 l-7 -60 -35 3 c-34 3 -126 32 -185 57 -16 8 -58 36 -93 64 -35 28 -67 51 -72 51 -17 0 -131 92 -139 113 -15 38 44 73 112 68 16 -2 41 2 55 8 98 40 241 51 290 21z m1267 -21 c66 -25 120 -70 165 -141 71 -109 73 -220 7 -291 -33 -35 -44 -30 -28 14 13 38 14 128 2 148 -6 10 -11 4 -15 -20 -16 -80 -33 -123 -66 -166 -32 -42 -41 -49 -95 -60 -33 -7 -70 -12 -82 -13 l-22 0 26 53 c23 45 27 64 26 142 0 69 -5 101 -22 138 -31 71 -78 134 -122 167 -45 32 -40 41 31 51 62 8 136 0 195 -22z m-2641 10 l25 -12 -37 -27 c-45 -32 -83 -81 -120 -152 -25 -48 -27 -63 -27 -163 0 -100 2 -113 24 -143 13 -18 21 -36 18 -38 -3 -3 -38 0 -78 8 -54 10 -79 20 -99 40 -40 40 -70 112 -77 185 l-6 65 -14 -34 c-16 -36 -10 -153 9 -176 8 -9 7 -11 -5 -6 -29 11 -59 76 -65 140 -4 51 0 71 21 117 43 94 119 164 210 193 53 16 188 18 221 3z m1362 -521 c4 -5 -78 -7 -182 -7 -104 1 -173 4 -154 8 50 9 327 8 336 -1z"/><path d="M5395 6680 c-3 -5 1 -10 9 -10 9 0 16 5 16 10 0 6 -4 10 -9 10 -6 0 -13 -4 -16 -10z"/><path d="M3865 6441 c-22 -5 -38 -19 -61 -59 -67 -111 -94 -249 -74 -380 12 -85 41 -180 65 -215 11 -15 13 -10 20 35 l7 53 19 -55 c35 -99 80 -178 125 -219 24 -23 52 -41 62 -41 85 0 257 274 317 505 44 169 52 289 24 362 l-9 23 -232 -1 c-128 -1 -246 -4 -263 -8z"/><path d="M3180 5585 c0 -8 7 -15 15 -15 51 0 182 -96 225 -164 27 -45 53 -56 43 -18 -18 73 -89 159 -160 192 -52 24 -123 27 -123 5z"/><path d="M4770 5579 c-42 -24 -110 -95 -129 -135 -7 -16 -18 -37 -23 -48 -6 -12 -6 -22 0 -28 6 -6 26 12 55 49 66 84 164 153 217 153 11 0 20 7 20 15 0 23 -96 19 -140 -6z"/><path d="M5815 5414 c-9 -21 -20 -48 -25 -59 -4 -11 -12 -31 -17 -45 -6 -14 -16 -38 -22 -53 -14 -34 -14 -57 -1 -57 16 0 179 118 179 130 1 5 -26 39 -75 98 l-21 26 -18 -40z"/><path d="M4859 5241 c-113 -24 -227 -121 -282 -241 -26 -57 -30 -77 -31 -160 -1 -58 4 -109 13 -130 49 -127 112 -200 217 -251 65 -31 75 -33 174 -33 98 0 109 2 173 32 84 41 168 120 205 192 17 33 39 60 55 68 58 28 189 44 315 40 67 -3 125 -2 127 2 7 12 -131 40 -194 40 -49 0 -127 -13 -214 -35 -24 -6 -26 -5 -20 11 3 11 15 31 25 46 27 39 23 48 -22 48 l-39 0 -20 68 c-54 179 -196 297 -368 307 -43 2 -94 1 -114 -4z m133 -148 c-7 -3 -16 -2 -19 1 -4 3 2 6 13 5 11 0 14 -3 6 -6z m150 -25 c24 -19 30 -51 14 -73 -12 -17 -11 -21 10 -37 31 -25 70 -112 78 -176 10 -80 -21 -127 -122 -180 -48 -26 -123 -31 -219 -17 -71 10 -67 25 7 25 128 0 230 103 230 234 0 74 -20 118 -64 139 -31 14 -36 22 -36 50 0 19 3 37 7 40 11 12 78 8 95 -5z m-278 -40 c18 -25 21 -100 6 -129 -7 -12 -21 -19 -39 -19 -23 0 -32 7 -45 34 -22 46 -20 78 5 110 25 32 53 33 73 4z m-100 -384 c18 -46 -28 -85 -69 -58 -29 19 -31 31 -8 56 20 23 69 24 77 2z"/><path d="M3085 5222 c-139 -49 -250 -176 -273 -314 -7 -42 -8 -43 -50 -46 -47 -4 -51 -13 -22 -57 38 -57 31 -62 -72 -53 -111 9 -188 -3 -273 -43 -61 -29 -58 -37 5 -19 113 34 332 44 382 18 10 -4 35 -39 58 -77 91 -156 264 -241 427 -211 135 26 237 103 299 227 25 50 29 72 32 159 4 110 -7 160 -54 239 -35 60 -115 132 -182 163 -74 35 -200 41 -277 14z m168 -129 c-7 -2 -19 -2 -25 0 -7 3 -2 5 12 5 14 0 19 -2 13 -5z m-116 -61 c-15 -15 -27 -33 -27 -40 0 -7 -4 -12 -10 -12 -5 0 -10 -9 -10 -19 0 -11 -4 -23 -10 -26 -5 -3 -10 -39 -10 -80 0 -148 89 -245 225 -245 65 0 95 -19 33 -21 -18 0 -49 -2 -68 -5 -70 -9 -146 -7 -166 4 -16 9 -26 8 -40 -3 -38 -28 -104 -9 -104 30 0 16 -19 66 -41 107 -16 31 -6 184 11 173 4 -3 30 17 57 44 48 48 110 87 120 77 3 -3 14 6 25 19 11 14 24 25 31 25 6 0 -1 -13 -16 -28z m132 -8 c40 -51 13 -154 -39 -154 -28 0 -60 47 -60 90 0 43 32 90 60 90 10 0 28 -12 39 -26z m171 -384 c0 -5 -5 -10 -11 -10 -5 0 -7 5 -4 10 3 6 8 10 11 10 2 0 4 -4 4 -10z m-40 -20 c0 -5 -4 -10 -10 -10 -5 0 -10 5 -10 10 0 6 5 10 10 10 6 0 10 -4 10 -10z"/><path d="M4067 4843 c18 -2 50 -2 70 0 21 2 7 4 -32 4 -38 0 -55 -2 -38 -4z"/><path d="M3992 4682 c-50 -11 -102 -57 -102 -92 0 -33 52 -80 87 -80 11 0 32 -12 47 -26 87 -87 -46 -344 -177 -344 -34 0 -48 6 -71 31 -24 25 -31 28 -38 16 -13 -24 18 -85 54 -103 92 -48 252 52 287 180 l8 31 26 -56 c35 -75 105 -143 163 -159 39 -11 50 -11 79 3 45 21 92 84 76 100 -9 9 -16 9 -31 -1 -11 -6 -32 -12 -47 -13 -24 0 -25 -2 -8 -8 16 -7 14 -9 -14 -14 -80 -16 -168 88 -200 236 -12 56 -12 58 15 89 14 18 45 39 67 46 50 17 66 37 67 79 0 25 -8 38 -35 59 -32 24 -45 27 -128 30 -51 1 -107 0 -125 -4z m159 -77 c-7 -16 -82 -37 -110 -32 -14 3 -42 10 -61 15 l-35 9 25 11 c32 13 187 11 181 -3z"/><path d="M3764 4536 c-16 -12 -16 -16 -4 -30 17 -21 54 -17 58 6 5 25 -31 41 -54 24z"/><path d="M4457 4514 c-9 -10 2 -24 19 -24 8 0 14 7 14 15 0 15 -21 21 -33 9z"/><path d="M3665 4491 c-3 -5 -1 -12 5 -16 12 -7 30 2 30 16 0 12 -27 12 -35 0z"/><path d="M4565 4480 c3 -5 10 -10 16 -10 5 0 9 5 9 10 0 6 -7 10 -16 10 -8 0 -12 -4 -9 -10z"/><path d="M4495 4430 c-4 -7 -3 -16 3 -22 14 -14 45 -2 40 15 -6 16 -34 21 -43 7z"/><path d="M3654 4415 c-9 -22 22 -53 37 -38 15 15 7 47 -14 51 -9 2 -20 -4 -23 -13z"/><path d="M4571 4402 c-8 -15 -7 -23 4 -32 21 -18 47 -4 43 22 -4 29 -34 35 -47 10z"/><path d="M3863 4164 c3 -3 12 -4 19 -1 8 3 5 6 -6 6 -11 1 -17 -2 -13 -5z"/><path d="M4763 2914 c3 -3 12 -4 19 -1 8 3 5 6 -6 6 -11 1 -17 -2 -13 -5z"/><path d="M3818 2893 c-7 -37 79 -83 105 -57 8 9 -15 44 -30 44 -6 0 -13 4 -15 8 -1 5 -15 12 -30 15 -21 6 -27 3 -30 -10z"/><path d="M3717 2873 c7 -2 21 -2 30 0 10 3 5 5 -12 5 -16 0 -24 -2 -18 -5z"/><path d="M4478 2873 c12 -2 32 -2 45 0 12 2 2 4 -23 4 -25 0 -35 -2 -22 -4z"/><path d="M3904 2762 c8 -15 23 -36 33 -47 11 -11 42 -54 70 -96 52 -76 94 -117 162 -156 l38 -21 11 35 c13 42 7 62 -17 56 -24 -6 -66 30 -90 80 -12 24 -29 52 -39 63 -10 11 -26 32 -36 46 -11 17 -23 25 -33 21 -9 -4 -19 1 -25 11 -6 11 -16 14 -34 10 -13 -3 -24 -2 -24 4 0 5 -7 12 -15 16 -13 5 -14 2 -1 -22z"/><path d="M6486 1802 c-3 -5 3 -12 14 -15 25 -7 37 -36 19 -47 -19 -12 -13 -14 119 -37 18 -3 35 -9 38 -14 3 -5 14 -9 25 -9 10 0 27 -4 37 -9 9 -5 34 -17 56 -26 26 -12 35 -20 28 -27 -10 -10 -64 -2 -147 22 -16 5 -57 11 -90 14 -44 3 -50 3 -25 -3 19 -5 29 -9 23 -10 -16 -1 -17 -31 -1 -31 6 0 4 -8 -6 -19 -12 -13 -15 -27 -11 -41 5 -15 0 -29 -15 -45 -29 -31 -17 -48 29 -41 20 3 55 9 79 12 51 8 54 21 7 30 -19 3 -35 10 -35 15 0 5 -9 9 -20 9 -24 0 -37 27 -22 42 8 8 18 9 34 1 13 -6 40 -18 61 -27 23 -11 37 -24 37 -35 0 -15 6 -17 43 -11 23 4 50 11 60 15 9 4 24 4 33 1 15 -6 15 -8 -1 -26 -10 -11 -26 -20 -36 -20 -10 0 -20 -4 -23 -9 -7 -11 -131 -35 -248 -47 -51 -6 -58 -4 -58 12 0 16 -2 16 -22 -3 -13 -11 -48 -32 -78 -47 -30 -15 -75 -38 -99 -51 -24 -13 -51 -26 -60 -29 -9 -3 -34 -12 -56 -20 -22 -9 -51 -16 -65 -16 -23 -1 -23 -2 -6 -11 11 -7 38 -9 70 -4 28 3 80 10 116 15 36 4 97 13 135 19 39 6 86 13 105 16 129 20 326 65 445 102 142 45 245 112 245 162 0 64 -163 147 -375 192 -27 6 -68 15 -90 20 -125 29 -260 45 -269 31z"/><path d="M1030 1673 c-122 -41 -168 -105 -120 -166 18 -23 135 -87 160 -87 5 0 18 -4 28 -9 16 -8 51 -19 147 -43 22 -5 57 -14 77 -20 27 -8 44 -8 60 0 l23 11 -22 0 c-12 1 -25 6 -29 12 -3 6 -23 18 -43 28 -115 52 -227 175 -233 256 -2 25 -15 29 -48 18z"/><path d="M1433 1329 c11 -7 23 -7 35 0 14 9 11 10 -18 10 -29 0 -32 -1 -17 -10z"/></g><text x="0" y="833" fill="#000000" font-size="5px" font-weight="bold" font-family="'Helvetica Neue', Helvetica, Arial-Unicode, Arial, Sans-serif">Created by 공 슈퍼스타철</text><text x="0" y="838" fill="#000000" font-size="5px" font-weight="bold" font-family="'Helvetica Neue', Helvetica, Arial-Unicode, Arial, Sans-serif">from the Noun Project</text></svg>