<svg xmlns="http://www.w3.org/2000/svg" xmlns:xlink="http://www.w3.org/1999/xlink" version="1.1" x="0px" y="0px" viewBox="0 0 100 125" style="enable-background:new 0 0 100 100;" xml:space="preserve"><path d="M96.685,51.387c-0.633-4.971-1.232-8.222-1.67-10.595c-0.322-1.747-0.554-3.009-0.628-4.055  c-0.036-0.513-0.314-1.212-1.434-1.63c-2.961-1.104-10.43,0.332-12.04,1.948c-1.261,1.266-0.824,2.697-0.534,3.645  c0.22,0.719,0.296,1.055,0.11,1.258c-1.08,1.175-3.945,3.936-5.677,5.47c-1.729,1.532-3.33,2.787-6.84,3.842  c-0.901,0.271-1.913,0.515-2.985,0.773c-4.074,0.982-8.287,1.998-8.521,4.947c-0.077,0.973,0.152,1.668,0.702,2.126  c0.399,0.331,0.931,0.507,1.667,0.542l-2.525,2.051c-0.16,0.13-0.26,0.32-0.277,0.525c-0.029,0.352-0.45,6.824,6.494,14.338  c-3.785-2.093-10.586-6.307-13.869-11.138c-0.235-0.346-0.705-0.435-1.051-0.201c-0.346,0.235-0.435,0.706-0.201,1.051  c3.658,5.384,11.144,9.877,14.91,11.906c-7.381,0.519-15.391-1.479-15.482-1.502c-0.221-0.055-0.455-0.009-0.638,0.126  c-1.042,0.775-6.38,1.799-12.146,2.479c6.506-1.541,13.86-4.136,16.675-6.818c0.303-0.289,0.314-0.768,0.026-1.07  c-0.288-0.302-0.767-0.314-1.07-0.026c-2.774,2.643-11.36,5.585-18.54,7.009c9.996-6.803,14.601-15.355,14.829-15.786  c0.135-0.256,0.112-0.567-0.059-0.801l-3.247-4.429c-0.031-0.042-0.066-0.078-0.104-0.112c0.374-0.128,0.719-0.273,1.03-0.435  c1.498-0.784,1.884-1.778,1.943-2.474c0.219-2.572-2.033-2.975-4.211-3.365c-1.275-0.228-2.72-0.487-4.109-1.123  c-1.969-0.902-3.622-3.474-4.439-5.402c-1.698-4.007-6.059-6.33-6.916-6.755c-1.747-0.866-2.888-2.161-3.992-3.412  c-0.643-0.73-1.252-1.42-1.957-2.006c-1.799-1.495-8.424,0.946-11.352,2.362c-4.628,2.239-4.595,3.621-4.585,4.076  c0.018,0.743,0.128,1.657,0.255,2.715c0.324,2.694,0.768,6.384,0.162,10.826c-0.85,6.229,0.323,11.329,3.488,15.16  c0.515,0.623,1.086,1.161,1.695,1.632c0.481,2.171,3.633,15.525,9.033,19.027c0.786,0.51,1.591,0.799,2.406,0.866  c0.448,0.037,0.9,0.007,1.352-0.091c0.984-0.212,2.343-0.628,2.79-1.783c0.215-0.557,0.167-1.151-0.058-1.793  c0.743,0.106,2.203,0.296,4.095,0.452c5.187,0.429,13.586,0.601,19.118-1.933c1.811,0.696,10.693,3.63,22.255-0.59  c0.127,0.083,0.258,0.165,0.388,0.247c-0.976,0.487-1.581,1.29-1.669,2.253c-0.101,1.098,0.499,2.19,1.566,2.851  c0.378,0.234,1.061,0.558,2.033,0.639c1.192,0.098,2.818-0.17,4.847-1.422c6.289-3.883,11.442-13.014,11.646-13.379  C89.716,73.83,97.815,60.262,96.685,51.387z M9.04,66.463c-2.884-3.491-3.946-8.198-3.155-13.991  c0.633-4.634,0.175-8.436-0.159-11.212c-0.123-1.02-0.229-1.9-0.245-2.57c0.005-0.299,0.97-1.369,3.924-2.77  c3.78-1.793,7.68-2.711,9.074-2.596c0.216,0.018,0.371,0.061,0.457,0.128c0.616,0.512,1.186,1.159,1.79,1.843  c1.144,1.298,2.441,2.769,4.455,3.768c0.474,0.235,4.674,2.399,6.195,5.989c0.967,2.282,2.842,5.106,5.202,6.188  c1.564,0.717,3.177,1.005,4.473,1.237c2.45,0.438,3.062,0.667,2.97,1.746c-0.049,0.577-0.645,1.004-1.136,1.261  c-2.645,1.383-9.482,1.477-15.441-1.947c-8.248-4.739-12.183-2.018-13.771-0.04c-0.002,0.002-0.003,0.004-0.005,0.006  c-0.166,0.207-0.307,0.407-0.424,0.588c-2.263,3.518-1.582,9.05,1.374,11.169c0.716,0.513,1.505,0.816,2.335,0.969  c0.11,0.081,0.242,0.134,0.386,0.146c0.018,0.002,0.036,0.002,0.054,0.003c0.1,0.001,0.196-0.018,0.284-0.052  c2.204,0.186,4.623-0.526,6.703-1.14c0.887-0.262,1.725-0.509,2.473-0.67c1.271-0.273,2.695-0.471,3.614,0.142  c0.533,0.355,0.876,0.972,1.047,1.886c0.013,0.069,0.047,0.253-0.215,0.572c-1.474,1.793-8.328,3.33-11.204,3.357  C16.592,70.506,11.829,69.838,9.04,66.463z M21.046,77.987l2.285,3.848l0.15,0.674c-0.17-0.242-0.347-0.49-0.529-0.744  c-1.91-2.673-4.258-5.961-4.196-9.802c0.466,0.02,0.92,0.028,1.354,0.023c2.675-0.026,10.317-1.427,12.358-3.91  c0.587-0.714,0.614-1.379,0.533-1.811c-0.246-1.318-0.817-2.283-1.696-2.868c-1.388-0.924-3.19-0.701-4.771-0.361  c-0.803,0.173-1.668,0.428-2.583,0.698c-1.908,0.563-3.979,1.171-5.794,1.107c-0.069-5.164-1.469-7.8-2.605-9.937  c-0.145-0.273-0.282-0.535-0.415-0.794c2.289-2.45,6.425-2.206,11.55,0.739c4.966,2.853,10.821,3.545,14.648,2.741  c-0.012,0.037-0.029,0.072-0.035,0.111c-1.281,8.041-19.806,19.139-19.993,19.25C20.951,77.164,20.832,77.628,21.046,77.987z   M16.64,64.591c-0.405-0.13-0.789-0.31-1.141-0.561c-2.161-1.549-2.74-5.643-1.329-8.503c0.016,0.03,0.031,0.058,0.047,0.088  C15.309,57.669,16.535,59.979,16.64,64.591z M23.737,86.533c-0.131,0.339-0.734,0.641-1.697,0.849  c-0.88,0.19-1.735,0.004-2.615-0.566c-4.149-2.69-7.002-12.553-8.022-16.598c1.857,0.951,3.908,1.428,5.841,1.634  c-0.103,4.383,2.526,8.066,4.476,10.793C22.843,84.217,24.004,85.841,23.737,86.533z M24.342,80.574l-1.612-2.715  c3.198-1.971,16.823-10.717,19.639-18.324l0.971,1.325c-0.889,1.619-3.909,6.383-11.51,12.664c-0.129,0.107-0.147,0.297-0.041,0.426  c0.054,0.066,0.13,0.102,0.208,0.109c0.076,0.006,0.154-0.016,0.218-0.068c7.387-6.104,10.466-10.717,11.522-12.588l0.659,0.899  C43.138,64.451,36.705,74.597,24.342,80.574z M25.026,82.485l-0.113-0.507c0.339-0.163,0.673-0.328,1.003-0.497  c6.649-0.265,18.024-1.731,20.854-3.248c1.832,0.436,11.01,2.452,18.619,1.11c0.452,0.393,0.927,0.787,1.423,1.182  c-6.968,2.101-19.481-0.657-19.614-0.686c-0.088-0.02-0.182,0.001-0.253,0.058C45.56,80.99,33.298,82.284,25.026,82.485z   M48.583,82.285c-0.203-0.089-0.434-0.084-0.633,0.013c-7.011,3.408-19.925,1.863-22.635,1.488l-0.155-0.699  c7.089-0.189,19.886-1.312,22.036-2.629c1.462,0.317,13.45,2.803,20.194,0.518c0.512,0.394,1.047,0.787,1.607,1.181  C57.395,85.99,48.673,82.324,48.583,82.285z M57.534,62.663l2.269-1.843c0.698,5.628,3.454,10.888,8.029,15.291  c2.451,2.359,4.835,3.92,6.225,4.733l-2.334,1.319c-0.208-0.133-0.414-0.266-0.616-0.4c-0.007-0.005-0.013-0.009-0.02-0.014  C58.338,73.329,57.559,64.404,57.534,62.663z M73.762,58.849c-0.009-0.001-0.019-0.002-0.028-0.002  c-1.46-0.121-3.009,0.685-3.198,2.767c-0.041,0.448-0.092,0.904-0.142,1.362c-0.343,3.09-0.732,6.592,1.978,8.355  c2.745,1.784,6.621,1.068,9.305-0.158c-0.926,2.025-3.557,5.877-6.194,8.736c-2.406-1.317-13.437-8.017-14.289-20.458  c2.086-0.361,5.072-1.164,9.412-2.332c1.188-0.32,2.472-0.665,3.859-1.034c4.825-1.283,7.937-0.782,8.538,1.375  c0.598,2.147-1.248,5.171-2.999,5.681c-2.013,0.586-2.704,0.352-2.937,0.16c-0.246-0.203-0.331-0.675-0.262-1.444  C76.956,60.183,75.343,58.993,73.762,58.849z M88.062,73.644c-0.051,0.091-5.175,9.173-11.133,12.852  c-2.055,1.269-4.032,1.563-5.287,0.785c-0.576-0.357-0.904-0.903-0.856-1.426c0.045-0.486,0.418-0.889,1.052-1.136  c3.828-1.491,9.865-9.691,11.33-13.247c0.212-0.516,0.332-0.935,0.361-1.285c2.51-1.506,3.995-3.145,5.127-4.59  c0.258-0.329,0.2-0.805-0.129-1.062c-0.328-0.258-0.805-0.2-1.062,0.129c-1.097,1.401-2.554,2.998-5.089,4.444  c-0.01,0.005-0.02,0.011-0.029,0.017c-0.288,0.163-0.59,0.325-0.906,0.484c-2.327,1.169-5.882,1.99-8.243,0.454  c-1.928-1.254-1.623-4.005-1.299-6.918c0.052-0.468,0.104-0.934,0.145-1.391c0.12-1.313,1.023-1.441,1.564-1.396  c0.006,0,0.012,0.001,0.018,0.001c0.841,0.076,1.734,0.675,1.672,1.362c-0.075,0.833-0.074,2.024,0.807,2.749  c0.847,0.697,2.22,0.737,4.323,0.125c2.477-0.721,4.878-4.507,4.033-7.541c-0.503-1.806-2.521-4.522-10.384-2.431  c-1.389,0.369-2.675,0.715-3.864,1.035c-6.751,1.816-11.211,3.016-12.078,2.296c-0.142-0.118-0.196-0.401-0.161-0.842  c0.147-1.855,4.15-2.82,7.367-3.595c1.092-0.263,2.125-0.512,3.065-0.795c3.806-1.143,5.539-2.501,7.408-4.159  c1.761-1.56,4.682-4.376,5.788-5.578c0.792-0.862,0.477-1.895,0.224-2.725c-0.295-0.965-0.433-1.54,0.159-2.134  c1.075-1.079,7.988-2.511,10.44-1.598c0.268,0.1,0.446,0.225,0.453,0.317c0.079,1.131,0.319,2.428,0.65,4.223  c0.434,2.356,1.029,5.582,1.657,10.512C96.247,59.931,88.156,73.486,88.062,73.644z"/><path d="M59.128,63.495c-0.051-0.159-0.231-0.238-0.388-0.18c-0.157,0.057-0.229,0.228-0.18,0.388  c2.694,8.837,5.824,11.416,8.181,13.505c0.051,0.045,0.113,0.07,0.176,0.075c0.092,0.008,0.186-0.027,0.252-0.101  c0.111-0.125,0.099-0.317-0.026-0.428C64.838,74.714,61.933,72.238,59.128,63.495z"/></svg>